<svg aria-hidden="true" style="position: absolute; width: 0; height: 0; overflow: hidden;" version="1.1" xmlns="http://www.w3.org/2000/svg" xmlns:xlink="http://www.w3.org/1999/xlink">
<defs>
<symbol id="icon-romb" viewBox="0 0 20 32">
<path d="M9.778 0l9.771 16.3-9.771 5.8-9.778-5.8 9.778-16.3zM19.556 18.163l-9.778 13.837-9.778-13.837 9.778 5.8 9.778-5.8z"></path>
</symbol>
<symbol id="icon-clock" viewBox="0 0 32 32">
<path d="M0 15.238c0-8.416 6.822-15.238 15.238-15.238 4.041 0 7.917 1.605 10.775 4.463s4.463 6.734 4.463 10.775c0 8.416-6.822 15.238-15.238 15.238s-15.238-6.822-15.238-15.238zM15.238 16.762h6.095c0.842 0 1.524-0.682 1.524-1.524s-0.682-1.524-1.524-1.524h-4.571v-4.571c0-0.842-0.682-1.524-1.524-1.524s-1.524 0.682-1.524 1.524v6.095c0 0.842 0.682 1.524 1.524 1.524z"></path>
</symbol>
</defs>
</svg>
